<svg xmlns="http://www.w3.org/2000/svg" xmlns:xlink="http://www.w3.org/1999/xlink" xmlns:serif="http://www.serif.com/" version="1.1" xml:space="preserve" style="fill-rule:evenodd;clip-rule:evenodd;stroke-linecap:round;stroke-linejoin:round;stroke-miterlimit:1.5;" viewBox="456.28 1006.39 2087.45 987.25">
    <g transform="matrix(0.852442,0,0,0.852442,200.545,544.455)">
        <g transform="matrix(9.76494,0,0,9.76494,-13087.7,-13903)">
            <path d="M1434.8,1555.36C1446.43,1555.36 1455.87,1564.8 1455.87,1576.43C1455.87,1588.06 1446.43,1597.5 1434.8,1597.5C1423.17,1597.5 1413.73,1588.06 1413.73,1576.43C1413.73,1564.8 1423.17,1555.36 1434.8,1555.36ZM1434.8,1562.12C1442.7,1562.12 1449.12,1568.53 1449.12,1576.43C1449.12,1584.33 1442.7,1590.74 1434.8,1590.74C1426.9,1590.74 1420.49,1584.33 1420.49,1576.43C1420.49,1568.53 1426.9,1562.12 1434.8,1562.12Z" style="fill: white; stroke: rgb(244, 243, 238); stroke-width: 0.06px; --darkreader-inline-fill:#e8e6e3; --darkreader-inline-stroke:#dfdcd8;" data-darkreader-inline-fill="" data-darkreader-inline-stroke=""/>
        </g>
        <g transform="matrix(9.76494,0,0,9.76494,-13087.7,-13903)">
            <path d="M1510,1576.44C1510,1575.77 1525.66,1560.78 1531.4,1555.04L1540,1555.04C1530.71,1563.12 1518.66,1576.37 1518.6,1576.44C1518.66,1576.51 1530.71,1589.76 1540,1597.84L1531.4,1597.84C1526.34,1592.78 1510,1577.11 1510,1576.44Z" style="fill: white; stroke: rgb(244, 243, 238); stroke-width: 0.06px; --darkreader-inline-fill:#e8e6e3; --darkreader-inline-stroke:#dfdcd8;" data-darkreader-inline-fill="" data-darkreader-inline-stroke=""/>
        </g>
        <g transform="matrix(9.76494,0,0,9.76494,-13087.7,-13903)">
            <path d="M1385,1590.93C1397.31,1591.01 1404.5,1578.84 1404.5,1582.43C1404.5,1586.74 1394.27,1596.39 1390,1597.57L1371,1597.57C1371,1597.57 1374.5,1592.2 1377.5,1590.93L1385,1590.93ZM1385,1562L1377.5,1562C1374.5,1560.73 1371,1555.36 1371,1555.36L1390,1555.36C1394.27,1556.54 1404.5,1566.19 1404.5,1570.5C1404.5,1574.31 1397.31,1561.92 1385,1562Z" style="fill: white; stroke: rgb(244, 243, 238); stroke-width: 0.06px; --darkreader-inline-fill:#e8e6e3; --darkreader-inline-stroke:#dfdcd8;" data-darkreader-inline-fill="" data-darkreader-inline-stroke=""/>
        </g>
        <g transform="matrix(9.76494,0,0,9.76494,-13087.7,-13903)">
            <path d="M1465.5,1576.37C1465.53,1571.05 1469.31,1555 1487,1555C1492.26,1555 1498.59,1556.99 1503,1562C1504.38,1563.57 1498.55,1565.73 1496.5,1565C1493.88,1564.07 1490.01,1562.5 1486.5,1562.5C1476.13,1562.5 1473,1570.47 1473,1576.43L1473,1576.57C1473.05,1582.52 1476.21,1590.36 1486.5,1590.36C1490.01,1590.36 1493.88,1588.79 1496.5,1587.86C1498.55,1587.13 1504.38,1589.29 1503,1590.86C1498.59,1595.87 1492.26,1597.86 1487,1597.86C1469.24,1597.86 1465.5,1581.69 1465.5,1576.43L1465.5,1576.37Z" style="fill: white; stroke: rgb(244, 243, 238); stroke-width: 0.06px; --darkreader-inline-fill:#e8e6e3; --darkreader-inline-stroke:#dfdcd8;" data-darkreader-inline-fill="" data-darkreader-inline-stroke=""/>
        </g>
        <g transform="matrix(9.76494,0,0,9.76494,-13087.7,-13903)">
            <path d="M1546.5,1555.5L1567.45,1576.43L1588.36,1555.5L1588.36,1597.5L1582,1597.5L1582,1572.5L1567.45,1587.05L1546.5,1565L1546.5,1555.5Z" style="fill: rgb(255, 135, 31); --darkreader-inline-fill:#ff902f;" data-darkreader-inline-fill=""/>
        </g>
        <g transform="matrix(9.76494,0,0,9.76494,-15265.3,-13990.9)">
            <circle cx="1610" cy="1585" r="5" style="fill: rgb(255, 135, 31); --darkreader-inline-fill:#ff902f;" data-darkreader-inline-fill=""/>
        </g>
        <g transform="matrix(0.87455,0,0,0.87455,213.676,-301.824)">
            <path d="M2680.52,2054.78C2653.14,2030.68 2635.85,1995.38 2635.85,1956.08C2635.85,1883.53 2694.76,1824.63 2767.3,1824.63C2839.85,1824.63 2898.76,1883.53 2898.76,1956.08C2898.76,2028.63 2839.86,2087.53 2767.3,2087.53L2767.3,2087.78C2731.01,2087.78 2701.58,2117.21 2701.58,2153.51C2701.58,2189.78 2731.03,2219.24 2767.3,2219.24C2803.6,2219.24 2833.03,2189.81 2833.03,2153.51L2898.76,2153.51C2898.75,2226.11 2839.9,2284.96 2767.3,2284.96C2694.76,2284.96 2635.85,2226.06 2635.85,2153.51C2635.85,2114.17 2653.14,2078.87 2680.52,2054.78ZM2767.3,1890.36C2803.58,1890.36 2833.03,1919.81 2833.03,1956.08C2833.03,1992.36 2803.58,2021.81 2767.3,2021.81C2731.03,2021.81 2701.58,1992.36 2701.58,1956.08C2701.58,1919.81 2731.03,1890.36 2767.3,1890.36Z" style="fill: rgb(255, 135, 31); --darkreader-inline-fill:#ff902f;" data-darkreader-inline-fill=""/>
        </g>
    </g>
    <g transform="matrix(0.601636,0,0,0.601636,546.943,825.902)">
        <g transform="matrix(0.537471,0,0,0.537471,769.548,-65.5439)">
            <path d="M1454.33,1454.77L1454.33,1692L1088.83,1897.6L1515.84,2147.13L2050.04,1840.78L2050.04,1717.77L1528.72,2016.51L1326.05,1897.6L2252.12,1362.22L2252.12,1959.69L1515.84,2383.18L778.963,1959.69L778.963,1840.78L1454.33,1454.77Z" style="fill: white; stroke: rgb(244, 243, 238); stroke-width: 3.09px; --darkreader-inline-fill:#e8e6e3; --darkreader-inline-stroke:#dfdcd8;" data-darkreader-inline-fill="" data-darkreader-inline-stroke=""/>
        </g>
        <g transform="matrix(0.537471,0,0,0.537471,769.548,-65.5439)">
            <path d="M1577.93,1619.66L1577.93,1385.95L1953.39,1167.46L1842.68,1103.03L778.963,1713.38L778.963,1480.25L1632.99,986.465L1515.54,917.347L778.963,1340.84L778.963,1103.03L1515.54,680.118L2252.12,1103.03L2252.12,1232.6L1577.93,1619.66Z" style="fill: rgb(255, 135, 31); --darkreader-inline-fill:#ff902f;" data-darkreader-inline-fill=""/>
        </g>
    </g>
</svg>