<svg xmlns="http://www.w3.org/2000/svg" xmlns:xlink="http://www.w3.org/1999/xlink" xmlns:serif="http://www.serif.com/" version="1.1" xml:space="preserve" style="fill-rule:evenodd;clip-rule:evenodd;stroke-linecap:round;stroke-linejoin:round;stroke-miterlimit:1.5;" viewBox="436.98 271.48 2126.03 2457.37">
    <g transform="matrix(2.68426,0,0,2.68426,-2752.16,-533.794)">
        <g transform="matrix(0.537471,0,0,0.537471,769.548,-65.5439)">
            <path d="M1454.33,1454.77L1454.33,1692L1088.83,1897.6L1515.84,2147.13L2050.04,1840.78L2050.04,1717.77L1528.72,2016.51L1326.05,1897.6L2252.12,1362.22L2252.12,1959.69L1515.84,2383.18L778.963,1959.69L778.963,1840.78L1454.33,1454.77Z" style="fill: white; stroke: rgb(244, 243, 238); stroke-width: 0.69px; --darkreader-inline-fill:#e8e6e3; --darkreader-inline-stroke:#dfdcd8;" data-darkreader-inline-fill="" data-darkreader-inline-stroke=""/>
        </g>
        <g transform="matrix(0.537471,0,0,0.537471,769.548,-65.5439)">
            <path d="M1577.93,1619.66L1577.93,1385.95L1953.39,1167.46L1842.68,1103.03L778.963,1713.38L778.963,1480.25L1632.99,986.465L1515.54,917.347L778.963,1340.84L778.963,1103.03L1515.54,680.118L2252.12,1103.03L2252.12,1232.6L1577.93,1619.66Z" style="fill: rgb(255, 135, 31); --darkreader-inline-fill:#ff902f;" data-darkreader-inline-fill=""/>
        </g>
    </g>
</svg>